<?xml version="1.0" encoding="UTF-8" standalone="no"?>
<svg
   xmlns:dc="http://purl.org/dc/elements/1.1/"
   xmlns:cc="http://creativecommons.org/ns#"
   xmlns:rdf="http://www.w3.org/1999/02/22-rdf-syntax-ns#"
   xmlns:svg="http://www.w3.org/2000/svg"
   xmlns="http://www.w3.org/2000/svg"
   xmlns:sodipodi="http://sodipodi.sourceforge.net/DTD/sodipodi-0.dtd"
   xmlns:inkscape="http://www.inkscape.org/namespaces/inkscape"
   inkscape:version="1.1-dev (ddb55ca, 2020-02-02)"
   height="35.390659"
   width="129.49805"
   sodipodi:docname="discord.sm.svg"
   version="1.1"
   viewBox="0 0 129.49805 35.390659"
   id="Layer_1">
  <metadata
     id="metadata844">
    <rdf:RDF>
      <cc:Work
         rdf:about="">
        <dc:format>image/svg+xml</dc:format>
        <dc:type
           rdf:resource="http://purl.org/dc/dcmitype/StillImage" />
        <dc:title></dc:title>
      </cc:Work>
    </rdf:RDF>
  </metadata>
  <defs
     id="defs842" />
  <sodipodi:namedview
     inkscape:current-layer="Layer_1"
     inkscape:window-maximized="0"
     inkscape:window-y="180"
     inkscape:window-x="617"
     inkscape:cy="17.69533"
     inkscape:cx="363.1"
     inkscape:zoom="0.83375"
     showgrid="false"
     id="namedview840"
     inkscape:window-height="833"
     inkscape:window-width="1611"
     inkscape:pageshadow="2"
     inkscape:pageopacity="0"
     guidetolerance="10"
     gridtolerance="10"
     objecttolerance="10"
     borderopacity="1"
     bordercolor="#666666"
     pagecolor="#ffffff" />
  <style
     id="style833">.st0{fill:#7289DA;}</style>
  <path
     style="stroke-width:0.17847"
     inkscape:connector-curvature="0"
     id="path835"
     d="m 18.900005,14.848729 c -1.017281,0 -1.820397,0.874504 -1.820397,1.963173 0,1.088669 0.820963,1.963178 1.820397,1.963178 1.017281,0 1.820397,-0.874509 1.820397,-1.963178 0,-1.088669 -0.820963,-1.963173 -1.820397,-1.963173 z m -6.514166,0 c -1.017281,0 -1.820397,0.874504 -1.820397,1.963173 0,1.088669 0.820963,1.963178 1.820397,1.963178 1.017281,0 1.820397,-0.874509 1.820397,-1.963178 0.01785,-1.088669 -0.803116,-1.963173 -1.820397,-1.963173 z"
     class="st0" />
  <path
     style="stroke-width:0.17847"
     inkscape:connector-curvature="0"
     id="path837"
     d="M 27.573662,0 H 3.6586412 C 1.6419268,0 0,1.641926 0,3.658641 V 27.57366 c 0,2.01672 1.6419268,3.65864 3.6586412,3.65864 H 23.897173 l -0.945892,-3.266 2.28442,2.10595 2.15949,1.98102 3.854959,3.33739 V 3.658641 C 31.232303,1.641926 29.590376,0 27.573662,0 Z m -6.888954,23.1119 c 0,0 -0.642493,-0.76742 -1.177904,-1.42776 2.337961,-0.66034 3.230312,-2.10595 3.230312,-2.10595 -0.731728,0.48187 -1.427762,0.82097 -2.052408,1.05298 -0.892352,0.37478 -1.749009,0.6068 -2.587819,0.76742 -1.713315,0.32125 -3.283854,0.23201 -4.622381,-0.0179 -1.017281,-0.19632 -1.891785,-0.46402 -2.623514,-0.76742 -0.410481,-0.16062 -0.8566571,-0.35694 -1.3028329,-0.6068 -0.053541,-0.0357 -0.1070821,-0.0535 -0.1606232,-0.0892 -0.035694,-0.0178 -0.053541,-0.0357 -0.071388,-0.0357 -0.3212466,-0.17847 -0.4997169,-0.3034 -0.4997169,-0.3034 0,0 0.8566575,1.40992 3.12323,2.0881 -0.535411,0.67819 -1.195751,1.46346 -1.195751,1.46346 -3.9441934,-0.12493 -5.4433439,-2.6949 -5.4433439,-2.6949 0,-5.693203 2.5699723,-10.315584 2.5699723,-10.315584 C 10.440513,8.209613 12.867709,8.263155 12.867709,8.263155 l 0.17847,0.214164 c -3.2124653,0.910198 -4.6759217,2.320114 -4.6759217,2.320114 0,0 0.3926346,-0.214165 1.0529747,-0.499717 1.909632,-0.83881 3.42663,-1.052975 4.051276,-1.124363 0.107082,-0.01785 0.196317,-0.03569 0.303399,-0.03569 1.088669,-0.142776 2.320114,-0.17847 3.6051,-0.03569 1.695468,0.196317 3.515865,0.696034 5.371956,1.695468 0,0 -1.409915,-1.338527 -4.44391,-2.248726 l 0.249858,-0.285552 c 0,0 2.445044,-0.05354 4.997169,1.856091 0,0 2.569972,4.622381 2.569972,10.315586 0,-0.0179 -1.49915,2.55212 -5.443344,2.67705 z M 47.633724,7.638528 H 41.70851 v 6.656943 l 3.944193,3.551559 v -6.460625 h 2.10595 c 1.338527,0 1.998867,0.642493 1.998867,1.677621 v 4.943627 c 0,1.035127 -0.624646,1.731157 -1.998867,1.731157 h -6.067991 v 3.76573 h 5.925215 c 3.176771,0.0178 6.157225,-1.57054 6.157225,-5.211334 V 12.974791 C 53.790952,9.262608 50.810495,7.638528 47.633724,7.638528 Z m 31.053832,10.654678 v -5.461192 c 0,-1.963173 3.533712,-2.409349 4.604534,-0.446175 l 3.266006,-1.320681 C 85.27311,8.245328 82.935149,7.424364 80.989823,7.424364 c -3.176771,0 -6.317849,1.838244 -6.317849,5.40765 v 5.461192 c 0,3.605104 3.141078,5.407654 6.246461,5.407654 1.998867,0 4.390369,-0.98159 5.711049,-3.55156 L 83.131467,18.543064 C 82.274809,20.73825 78.687556,20.20284 78.687556,18.293206 Z M 67.890103,13.58159 c -1.231445,-0.267706 -2.052409,-0.713882 -2.10595,-1.481304 0.07139,-1.838244 2.909066,-1.909632 4.56884,-0.142776 L 72.976506,9.940795 C 71.33458,7.941928 69.478488,7.406517 67.568856,7.406517 c -2.909066,0 -5.728896,1.641927 -5.728896,4.74731 0,3.016148 2.320113,4.640228 4.872239,5.032863 1.302833,0.17847 2.748442,0.696034 2.712748,1.58839 -0.107082,1.69546 -3.6051,1.60623 -5.193485,-0.321251 l -2.534279,2.373651 c 1.481304,1.90964 3.498018,2.87338 5.389803,2.87338 2.909066,0 6.139379,-1.67763 6.264308,-4.74731 0.17847,-3.87281 -2.64136,-4.854397 -5.461191,-5.37196 z m -11.95751,9.9051 h 3.997734 V 7.638528 H 55.932593 Z M 123.34083,7.638528 h -5.92522 v 6.656943 l 3.9442,3.551559 v -6.460625 h 2.10594 c 1.33853,0 1.99887,0.642493 1.99887,1.677621 v 4.943627 c 0,1.035127 -0.62464,1.731157 -1.99887,1.731157 h -6.06799 v 3.76573 h 5.94307 c 3.17677,0.0178 6.15722,-1.57054 6.15722,-5.211334 v -5.318415 c 0,-3.712183 -2.98045,-5.336263 -6.15722,-5.336263 z M 94.268013,7.424364 c -3.283853,0 -6.54986,1.784703 -6.54986,5.443344 v 5.40765 c 0,3.622952 3.283854,5.443342 6.585554,5.443342 3.283854,0 6.549863,-1.82039 6.549863,-5.443342 v -5.40765 c 0,-3.640794 -3.301703,-5.443344 -6.585557,-5.443344 z m 2.569973,10.850994 c 0,1.142212 -1.284986,1.731162 -2.552126,1.731162 -1.284986,0 -2.569972,-0.55326 -2.569972,-1.731162 v -5.40765 c 0,-1.160057 1.249292,-1.784703 2.498584,-1.784703 1.302834,0 2.623514,0.553258 2.623514,1.784703 z m 18.364594,-5.40765 c -0.0892,-3.712182 -2.62351,-5.211332 -5.88952,-5.211332 h -6.3357 V 23.50454 h 4.05128 v -5.032864 h 0.71388 l 3.67649,5.032864 h 4.99717 l -4.31898,-5.443346 c 1.90963,-0.606799 3.10538,-2.266573 3.10538,-5.193486 z m -5.81813,2.141644 h -2.35581 v -3.622947 h 2.35581 c 2.51643,0 2.51643,3.622947 0,3.622947 z"
     class="st0" />
</svg>
